<svg width="51" height="51" viewBox="0 0 51 51" fill="none" xmlns="http://www.w3.org/2000/svg">
<g clip-path="url(#clip0_121_7594)">
<path d="M24.1626 29.0971L11.3478 20.8332C10.9319 20.565 10.3909 20.5934 10.0055 20.9036L1.3899 27.8368C0.779702 28.3278 0.829229 29.2722 1.4875 29.6967L14.3023 37.9607C14.7182 38.2289 15.2592 38.2005 15.6447 37.8902L24.2602 30.9571C24.8704 30.466 24.8209 29.5216 24.1626 29.0971Z" fill="#1587EA"/>
<path d="M27.6626 30.957L36.2782 37.8901C36.6638 38.2003 37.2047 38.2287 37.6205 37.9605L50.4354 29.6966C51.0936 29.2721 51.1432 28.3277 50.533 27.8367L41.9174 20.9036C41.5318 20.5934 40.9909 20.565 40.575 20.8332L27.7602 29.0971C27.1021 29.5216 27.0524 30.466 27.6626 30.957Z" fill="#1587EA"/>
<path d="M24.2602 9.25614L15.6447 2.32305C15.2591 2.01281 14.7182 1.98441 14.3023 2.25262L1.4875 10.5166C0.829229 10.9411 0.779702 11.8854 1.3899 12.3765L10.0055 19.3095C10.391 19.6198 10.9319 19.6482 11.3478 19.38L24.1626 11.116C24.8209 10.6915 24.8704 9.74717 24.2602 9.25614Z" fill="#1587EA"/>
<path d="M50.4351 10.5171L37.6203 2.25311C37.2044 1.9849 36.6634 2.0133 36.2779 2.32354L27.6624 9.25663C27.0522 9.74765 27.1017 10.692 27.76 11.1165L40.5749 19.3805C40.9908 19.6487 41.5318 19.6203 41.9173 19.31L50.5328 12.3769C51.1429 11.8858 51.0934 10.9414 50.4351 10.5171Z" fill="#1587EA"/>
<path d="M25.3347 32.1751L15.6864 39.8714C15.3367 40.1504 14.8481 40.175 14.4722 39.9326L12.0941 38.3989C11.4009 37.9519 10.4878 38.4496 10.4878 39.2744V40.1035C10.4878 40.4678 10.6781 40.8056 10.9895 40.9945L25.3536 49.7018C25.6855 49.903 26.1017 49.903 26.4337 49.7018L40.7977 40.9945C41.1092 40.8056 41.2994 40.4679 41.2994 40.1035V39.3635C41.2994 38.5387 40.3863 38.041 39.6931 38.4881L37.4544 39.9317C37.0779 40.1745 36.5882 40.1494 36.2385 39.8692L26.6358 32.1765C26.2557 31.872 25.7153 31.8715 25.3347 32.1751Z" fill="#1587EA"/>
</g>
<defs>
<clipPath id="clip0_121_7594">
<rect width="50" height="50" fill="white" transform="translate(0.961426 0.961426)"/>
</clipPath>
</defs>
</svg>
