<?xml version="1.0" encoding="UTF-8"?>
<svg xmlns="http://www.w3.org/2000/svg" width="54" height="43" viewBox="0 0 54 43" fill="none">
  <path fill-rule="evenodd" clip-rule="evenodd" d="M0 0H53.1996V43H0V0ZM10.5607 27.8726H7.58507C7.58163 25.3819 7.58094 22.8927 7.58026 20.4031C7.57922 16.669 7.57819 12.9343 7.56787 9.19337V7.79156H10.7499V12.3926C10.7585 12.4098 10.7929 12.3496 10.7929 12.3496C11.1455 11.8938 11.7905 11.8164 12.6161 11.8164C12.8741 11.8164 13.1321 11.8508 13.3901 11.911C14.1813 12.1776 14.7575 12.857 14.9037 13.6826C15.1101 14.6888 15.1789 15.7122 15.1273 16.7356V23.3232C15.1875 24.3552 15.1187 25.3958 14.9209 26.4106C14.7575 27.2448 14.0867 27.8898 13.2525 28.0102C12.9429 28.0532 12.6333 28.079 12.3151 28.0876C11.4809 28.0876 10.9219 27.9328 10.5607 27.477V27.8726ZM11.4379 14.0954C10.9649 14.0438 10.5263 14.3792 10.4403 14.8522C10.4231 15.1274 10.4145 15.4026 10.4317 15.6692V23.2716C10.3887 23.8048 10.4145 24.3466 10.5091 24.8712C10.5607 25.0776 10.6897 25.2496 10.8703 25.3528C11.0853 25.4646 11.3347 25.499 11.5755 25.4732C12.0313 25.456 12.4011 25.1034 12.4355 24.6476C12.4441 24.4498 12.4441 24.2434 12.4355 24.0456V15.5058C12.4527 15.2994 12.4527 15.093 12.4355 14.8952C12.3495 14.4222 11.9195 14.0782 11.4379 14.0954ZM33.9613 7.86896H37.1089L37.1175 10.9564H33.9613V7.86896ZM41.1595 27.9328H38.0119C38.0076 25.3158 38.0097 22.6946 38.0118 20.0416C38.014 17.3675 38.0162 14.6609 38.0119 11.8938H41.1767V12.8312C41.5207 12.384 42.0109 12.0658 42.5613 11.9368C43.1719 11.8508 43.7825 11.9282 44.3501 12.1604C45.3563 12.5732 45.6831 13.5708 45.7175 14.9554V27.9414H42.5613V15.2822C42.5613 14.6802 42.3979 14.1814 41.8389 14.19C41.2799 14.1986 41.1595 14.6974 41.1595 15.308V27.9328ZM20.5969 27.9586C19.9777 28.1134 19.3413 28.1306 18.7221 28.036C16.9677 27.7694 16.0303 26.5998 15.8239 24.7766C15.7723 24.1058 15.7551 23.435 15.7809 22.7642V16.6066C15.7637 15.9702 15.8153 15.3252 15.9271 14.6974C16.1249 13.3988 17.0881 12.3496 18.3695 12.04C18.6619 11.9626 18.9715 11.9196 19.2811 11.9024C20.1325 11.8336 20.9753 12.0916 21.6375 12.6248C22.2223 13.1064 22.6437 13.7686 22.8243 14.5082C23.0135 15.4542 23.0823 16.4174 23.0221 17.3806V20.4594H18.6447V24.3638C18.5931 24.7594 18.6361 25.1636 18.7651 25.542C18.9543 25.8516 19.3499 25.9634 19.6681 25.7828C19.9605 25.6194 19.9605 25.2152 19.9605 24.7766V22.1794H23.0221V24.2262C23.0135 24.8282 22.9103 25.413 22.7211 25.9806C22.4287 26.9782 21.6117 27.735 20.5969 27.9586ZM19.5133 14.2244C19.0833 14.2158 18.7135 14.5254 18.6447 14.9554C18.6276 15.0634 18.6331 15.1752 18.6388 15.2908C18.6417 15.35 18.6447 15.4102 18.6447 15.4714V19.049H20.4163V16.0476C20.4163 15.9358 20.4201 15.823 20.4239 15.7103C20.4316 15.4847 20.4392 15.2592 20.4163 15.0414C20.3647 14.577 19.9777 14.2244 19.5133 14.2244ZM33.9613 11.8938H37.1089L37.1175 27.9414H33.9613V12.1776V11.8938ZM25.9547 18.3696V27.5716C25.9547 27.7608 25.9719 27.9586 26.0665 27.993H23.7273L23.7617 11.9196H26.8233V12.986C27.3651 12.3926 28.1391 12.0658 28.9475 12.0916V14.9554C29.2571 15.007 29.5667 15.0844 29.8677 15.1962V7.86896H33.0583V27.9414H30.5815C30.6245 27.8468 30.6503 27.7436 30.6417 27.6318V18.4298C30.6417 18.4105 30.6418 18.391 30.6419 18.3711C30.644 18.0014 30.6466 17.5429 29.9365 17.3634C29.1883 17.1742 28.4229 17.1054 27.6575 17.1828C27.1587 17.1914 26.6685 17.3204 26.2299 17.5698C26.1439 17.6214 25.9547 17.759 25.9547 18.3696ZM29.5667 15.4542C28.8701 15.2392 28.1219 15.179 27.3995 15.2908C27.0813 15.351 26.7115 15.5832 26.7115 15.7724C26.7115 15.8262 26.7129 15.9036 26.7145 15.9924C26.7185 16.216 26.7238 16.5116 26.7115 16.684C26.6943 16.9248 26.9007 16.9248 26.9007 16.9248C27.7951 16.7528 28.7067 16.7614 29.6011 16.9506C29.7731 16.985 29.8075 16.856 29.8075 16.727V15.824C29.8075 15.4886 29.5667 15.4542 29.5667 15.4542ZM9.83827 32.0952H10.3715C10.5865 32.0952 10.8015 32.1554 10.7843 32.4392C10.7899 32.4618 10.7881 32.4806 10.7863 32.5007C10.7853 32.5112 10.7843 32.522 10.7843 32.5338C10.7499 32.7746 10.5263 32.9552 10.2855 32.9208H9.66627L9.83827 32.0952ZM26.5653 33.3164L27.1587 32.2156L27.3049 33.3164H26.5653ZM13.5621 33.3164L14.1641 32.2156L14.3103 33.3164H13.5621ZM7.57647 35.475V30.3666H45.7519V35.475H7.57647ZM9.58027 33.4024H10.3371C10.3543 33.4024 10.3801 33.4024 10.3973 33.411C10.9477 33.4196 11.4035 32.981 11.4121 32.4306C11.4121 31.82 11.0079 31.6308 10.4489 31.6308H9.33947L8.76327 34.4H9.36527L9.58027 33.4024ZM14.3619 33.7722L14.4565 34.3914H15.0499L14.5941 31.6222H13.9663L12.3237 34.3914H12.9687L13.3213 33.7722H14.3619ZM18.8683 33.411C18.8081 33.7206 18.5329 33.9356 18.2233 33.9442C17.7847 33.9442 17.5955 33.6088 17.5869 33.239C17.5869 32.7058 17.8707 32.078 18.4899 32.078C18.5243 32.0694 18.5673 32.0694 18.6017 32.078C18.8511 32.1124 19.0317 32.3532 18.9887 32.6026H19.5993C19.5993 32.5424 19.5993 32.4908 19.5907 32.4306C19.5219 31.8888 19.0317 31.5104 18.4899 31.5792H18.4125C17.5525 31.6394 16.9075 32.3876 16.9763 33.2476C16.9677 33.325 16.9677 33.3938 16.9763 33.4712C17.0365 34.0904 17.5869 34.5376 18.2061 34.4774C18.8081 34.4774 19.2295 34.185 19.4789 33.411H18.8683ZM23.0995 34.3914H23.7875L22.9017 32.7574L24.2347 31.6222H23.4263L22.1707 32.7832L22.4115 31.6222H21.8009L21.2677 34.3914H21.8525L22.0417 33.5142L22.4631 33.1444L23.0995 34.3914ZM27.3479 33.7722L27.4425 34.3914H28.0445L27.5801 31.6222H26.9523L25.3183 34.3914H25.9375L26.2815 33.7722H27.3479ZM31.9833 33.3422C31.9145 33.712 31.5791 33.97 31.2093 33.9442C30.7707 33.9442 30.5815 33.6088 30.5901 33.2304C30.5901 32.6972 30.8739 32.0694 31.5017 32.0694C31.8371 32.0694 32.0693 32.1984 32.0693 32.5338H32.6885C32.6885 31.8544 32.1553 31.5534 31.5103 31.5534C31.4845 31.562 31.4501 31.562 31.4243 31.562C30.5643 31.6308 29.9279 32.379 29.9967 33.2304C29.9881 33.3078 29.9881 33.3766 29.9967 33.454C30.0569 34.0732 30.6073 34.5204 31.2265 34.4602C31.5017 34.4602 31.7597 34.3312 31.9231 34.1076V34.3828H32.3015L32.6197 32.8864H31.4415L31.3383 33.3422H31.9833ZM34.3139 34.3914H34.9331L35.5179 31.6222H34.9073L34.3139 34.3914ZM38.7515 34.3914H39.3707L39.9125 31.6222H39.3793L38.9837 33.5916L38.2441 31.6222H37.6077L37.0229 34.3914H37.5991L37.9947 32.4478L38.7515 34.3914ZM43.6191 33.3422C43.5589 33.712 43.2235 33.9786 42.8451 33.9442C42.3979 33.9442 42.2173 33.6088 42.2087 33.2304C42.2087 32.6972 42.4925 32.0694 43.1203 32.0694C43.4557 32.0694 43.6879 32.1984 43.6879 32.5338H44.3157C44.3157 31.8544 43.7825 31.5534 43.1375 31.5534C43.1117 31.562 43.0773 31.562 43.0515 31.562C42.1915 31.6308 41.5551 32.379 41.6239 33.2304C41.6153 33.3078 41.6153 33.3766 41.6239 33.454C41.6841 34.0732 42.2345 34.5204 42.8537 34.4602C43.1289 34.4602 43.3869 34.3312 43.5503 34.1076V34.3828H43.9373L44.2555 32.8864H43.0773L42.9827 33.3422H43.6191ZM44.2211 10.8102C45.0381 10.8102 45.6917 10.148 45.6917 9.33956V9.29657C45.6745 8.49677 45.0209 7.86036 44.2211 7.86896C43.4041 7.86896 42.7505 8.53117 42.7505 9.33956C42.7505 10.1566 43.4127 10.8102 44.2211 10.8102ZM44.2383 10.5608C43.5503 10.5694 42.9913 10.0276 42.9827 9.33956V9.30517C42.9913 8.62577 43.5417 8.07536 44.2211 8.08396C44.9005 8.08396 45.4509 8.62577 45.4595 9.30517C45.4681 9.99317 44.9263 10.5522 44.2383 10.5608ZM43.6965 10.191H43.9029L43.9287 9.45136H44.2813L44.7543 10.2082H44.9951L44.4619 9.45136C44.7027 9.43417 44.8919 9.22777 44.8833 8.97836C44.8833 8.67737 44.7371 8.51396 44.3501 8.51396H43.6965V10.191ZM44.6855 8.95257C44.6855 9.25356 44.4103 9.25356 44.1523 9.25356H43.8943V8.66017H44.2813L44.298 8.66015C44.4982 8.65993 44.6855 8.65972 44.6855 8.95257Z" fill="white"></path>
</svg>
