<?xml version="1.0" encoding="UTF-8"?>
<svg xmlns="http://www.w3.org/2000/svg" xmlns:xlink="http://www.w3.org/1999/xlink" width="153px" height="26px" viewBox="0 0 153 26">
  <title>Black-Diamond-White</title>
  <g id="Page-1" stroke="none" stroke-width="1" fill="none" fill-rule="evenodd">
    <g id="Logo-Entry-Copy" transform="translate(-1357.000000, -563.000000)" fill="#FFFFFF">
      <g id="Color-Variations" transform="translate(589.000000, 548.000000)">
        <path d="M913.047899,21.8045638 L913.047899,23.9334645 L913.392027,23.9334645 L913.392027,22.2160294 L913.908518,23.9334645 L914.215175,23.9334645 L914.724471,22.2160294 L914.724471,23.9334645 L915.057208,23.9334645 L915.057208,21.8045638 L914.531124,21.8045638 L914.0569,23.3279918 L913.581776,21.8045638 L913.047899,21.8045638 Z M911.754424,22.1557258 L911.754424,23.9334645 L912.12493,23.9334645 L912.12493,22.1557258 L912.732549,22.1557258 L912.732549,21.8045638 L911.146506,21.8045638 L911.146506,22.1557258 L911.754424,22.1557258 Z M917.694518,26.6696654 C916.971791,25.9170884 915.989769,25.7060257 915.011644,25.7060257 C912.002028,25.7605426 911.123724,28.3316699 911.123724,30.2723503 C911.123724,32.9829679 913.222661,34.6248711 915.099474,34.6248711 C916.317409,34.6248711 917.367777,34.1518836 917.884268,33.2969731 L917.917542,33.2969731 L917.917542,34.2749274 L921,34.2749274 L921,21.7920767 L917.694518,21.7920767 L917.694518,26.6696654 Z M917.640861,30.1669712 C917.640861,31.6873536 916.986779,32.4216568 916.075201,32.4216568 C915.183707,32.4216568 914.544314,31.6873536 914.544314,30.1669712 C914.544314,28.6447615 915.183707,27.9107628 916.075201,27.9107628 C916.986779,27.9107628 917.640861,28.6447615 917.640861,30.1669712 L917.640861,30.1669712 Z M904.143753,34.2749274 L904.143753,29.5898229 C904.143753,28.8214085 904.691719,28.1203027 905.483991,28.1203027 C906.243589,28.1203027 906.606302,28.5046622 906.606302,29.3629229 L906.606302,34.2749274 L909.909086,34.2749274 L909.909086,28.6447615 C909.841639,26.6520007 908.344325,25.7060257 906.982204,25.7060257 C905.790348,25.7060257 904.607485,26.091908 904.125168,27.4563537 L904.091894,27.4563537 L904.091894,26.058406 L900.83977,26.058406 L900.83977,34.2749274 L904.143753,34.2749274 Z M877.301216,34.2749274 L877.301216,29.2389654 C877.301216,28.3673039 877.833295,28.1203027 878.366572,28.1203027 C878.900449,28.1203027 879.416041,28.3673039 879.416041,29.2389654 L879.416041,34.2749274 L882.719724,34.2749274 L882.719724,29.2389654 C882.719724,28.3673039 883.2545,28.1203027 883.788677,28.1203027 C884.320756,28.1203027 884.839045,28.3673039 884.839045,29.2389654 L884.839045,34.2749274 L888.142728,34.2749274 L888.142728,29.2389654 C888.142728,26.4086543 886.577668,25.7060257 884.823158,25.7060257 C883.857023,25.7060257 882.755695,26.1619576 882.25779,27.1779824 C881.758086,26.1966779 880.929842,25.7060257 879.795241,25.7060257 C878.969695,25.7060257 877.761352,26.058406 877.196599,27.2443773 L877.161527,27.2443773 L877.161527,26.058406 L873.993936,26.058406 L873.993936,34.2749274 L877.301216,34.2749274 Z M858.016593,24.8569019 L861.321175,24.8569019 L861.321175,21.8459844 L858.016593,21.8459844 L858.016593,24.8569019 Z M858.016593,34.2749274 L861.321175,34.2749274 L861.321175,26.2420579 L858.016593,26.2420579 L858.016593,34.2749274 Z M847.847748,31.7229875 L849.82738,31.7229875 C852.168525,31.7229875 853.167034,30.3241261 853.167034,28.0307609 C853.167034,25.1480648 851.598677,24.3440165 849.82738,24.3440165 L847.847748,24.3440165 L847.847748,31.7229875 Z M844.336629,21.7920767 L849.619944,21.7920767 C854.354394,21.7920767 856.88379,23.7141786 856.88379,28.0307609 C856.88379,32.3513026 854.354394,34.2749274 849.619944,34.2749274 L844.336629,34.2749274 L844.336629,21.7920767 Z M894.492298,32.706424 C895.545064,32.706424 896.132599,31.8676553 896.132599,30.170626 C896.132599,28.4717693 895.545064,27.6342189 894.492298,27.6342189 C893.44283,27.6342189 892.855295,28.4717693 892.855295,30.170626 C892.855295,31.8676553 893.44283,32.706424 894.492298,32.706424 L894.492298,32.706424 Z M894.492298,34.6300487 C891.061816,34.6300487 889.372354,32.6726174 889.372354,30.170626 C889.372354,27.6695483 891.061816,25.7090713 894.492298,25.7090713 C897.926078,25.7090713 899.618238,27.6695483 899.618238,30.170626 C899.618238,32.6726174 897.926078,34.6300487 894.492298,34.6300487 L894.492298,34.6300487 Z M872.639609,34.2715772 C872.200457,33.7897573 872.122519,33.1419501 872.122519,32.2468372 L872.122519,31.9757755 C872.118921,31.9721207 872.116224,31.9721207 872.113526,31.9721207 L872.113526,26.0456143 L869.177651,26.0456143 L869.177651,26.7835723 C868.566436,26.049269 867.565229,25.6904929 866.614382,25.6904929 C864.165022,25.6904929 862.469865,27.7490395 862.469865,30.1456518 C862.469865,32.5468325 864.195598,34.6175616 866.647656,34.6175616 C867.61469,34.6175616 868.817637,34.2018321 869.271777,33.2515931 L869.283168,33.2515931 C869.279571,33.7139209 869.317341,34.03219 869.462426,34.2715772 L872.639609,34.2715772 Z M869.177651,30.1383422 C869.177651,31.6562881 868.52267,32.3832818 867.611092,32.3832818 C866.698615,32.3832818 866.062819,31.6562881 866.062819,30.1383422 C866.062819,28.6252694 866.698615,27.890357 867.611092,27.890357 C868.52267,27.890357 869.177651,28.6252694 869.177651,30.1383422 L869.177651,30.1383422 Z M833.462743,34.2749274 L833.462743,32.073845 L834.495425,31.0575157 L836.147417,34.2749274 L839.865671,34.2749274 L836.801798,28.9267876 L839.571604,26.058406 L835.614439,26.058406 L833.47953,28.4717693 L833.47953,21.7920767 L830.175547,21.7920767 L830.175547,34.2749274 L833.462743,34.2749274 Z M829.005874,28.9615078 C828.662346,26.8962609 826.699501,25.7060257 824.395226,25.7060257 C821.123918,25.7060257 819.471926,28.0505576 819.471926,30.113368 C819.471926,33.0186018 821.605936,34.6248711 824.324182,34.6248711 C825.477968,34.6248711 826.615268,34.4168541 827.474087,33.8930044 C828.335605,33.3658045 828.919842,32.5279496 829.005874,31.2697966 L825.704589,31.2697966 C825.632646,31.9855215 825.391937,32.5635835 824.395226,32.5635835 C823.671599,32.5635835 822.948872,32.1773967 822.948872,30.0439275 C822.948872,28.5582654 823.498636,27.7694452 824.359255,27.7694452 C824.739354,27.7694452 825.013336,27.875738 825.219873,28.0852779 C825.408723,28.2966451 825.530727,28.594813 825.599972,28.9615078 L829.005874,28.9615078 Z M804.264073,34.2749274 L807.567756,34.2749274 L807.567756,21.7920767 L804.264073,21.7920767 L804.264073,34.2749274 Z M795.107826,29.0659732 L795.107826,31.79456 L797.206764,31.79456 C799.082378,31.79456 799.565595,31.374262 799.565595,30.4292006 C799.565595,29.3808921 799.100963,29.0659732 797.93039,29.0659732 L795.107826,29.0659732 Z M795.107826,24.2709212 L795.107826,26.6520007 L797.4139,26.6520007 C798.704977,26.6520007 799.030819,26.1966779 799.030819,25.427959 C799.030819,24.7286805 798.704977,24.2709212 797.4139,24.2709212 L795.107826,24.2709212 Z M791.594909,21.7920767 L798.084768,21.7920767 C801.078796,21.7920767 802.541038,22.9113485 802.541038,24.7634008 C802.541038,26.3903805 801.872568,27.1779824 800.305109,27.596453 L800.305109,27.6311733 C802.007761,27.8595961 803.076714,28.9079046 803.076714,30.7084856 C803.076714,32.2815575 802.214297,34.2749274 798.03231,34.2749274 L791.594909,34.2749274 L791.594909,21.7920767 Z M818.854415,34.284978 C818.413764,33.8022444 818.337325,33.1559601 818.337325,32.2620654 L818.337325,31.9873489 C818.334627,31.9855215 818.33103,31.9855215 818.327733,31.9855215 L818.327733,26.0571877 L815.392758,26.0571877 L815.392758,26.796364 C814.779743,26.0620607 813.780335,25.70298 812.828289,25.70298 C810.37803,25.70298 808.684971,27.7606129 808.684971,30.1581389 C808.684971,32.5599288 810.411304,34.6318761 812.860663,34.6318761 C813.828597,34.6318761 815.035141,34.2134055 815.483885,33.2659076 L815.498873,33.2659076 C815.495276,33.7245806 815.530648,34.0465045 815.677232,34.284978 L818.854415,34.284978 Z M815.392758,30.151743 C815.392758,31.6678615 814.738376,32.3994237 813.825899,32.3994237 C812.914321,32.3994237 812.276726,31.6678615 812.276726,30.151743 C812.276726,28.6350155 812.914321,27.9040624 813.825899,27.9040624 C814.738376,27.9040624 815.392758,28.6350155 815.392758,30.151743 L815.392758,30.151743 Z M773.703882,27.9098491 L779.717118,19.1155702 L776.892756,15 L768,28.0009137 L776.915537,41 L779.805848,36.7750914 L773.703882,27.9098491 Z M776.538736,28.0009137 L781.167969,21.2316793 L785.810991,28.0009137 L781.188053,34.7549199 L776.538736,28.0009137 Z" id="Black-Diamond-White"></path>
      </g>
    </g>
  </g>
</svg>
