<?xml version="1.0" encoding="UTF-8"?>
<svg xmlns="http://www.w3.org/2000/svg" xmlns:xlink="http://www.w3.org/1999/xlink" width="138px" height="22px" viewBox="0 0 138 22">
  <title>Tectran-White</title>
  <g id="Page-1" stroke="none" stroke-width="1" fill="none" fill-rule="evenodd">
    <g id="Logo-Entry" transform="translate(-1364.000000, -579.000000)" fill="#FFFFFF">
      <path d="M1367.90752,587.091565 L1367.90752,590.103465 L1369.41061,590.103465 L1369.41061,592.549917 L1367.94283,592.549917 C1367.9333,592.68653 1367.91985,592.792691 1367.91957,592.899131 C1367.91789,594.080033 1367.91705,595.261214 1367.91929,596.442395 C1367.92041,597.003652 1368.12221,597.198094 1368.69283,597.198373 L1368.69283,597.198373 L1370.82765,597.198653 L1370.82765,600.99335 L1370.30635,600.99335 C1369.44368,600.99335 1368.58045,600.969883 1367.71862,600.998379 C1366.16536,601.049783 1364.45207,599.874748 1364.07287,598.037325 C1364.05998,597.975025 1364.02466,597.917474 1364,597.857689 L1364,597.857689 L1364,587.091565 L1367.90752,587.091565 Z M1386.20475,594.208404 C1386.20475,594.753457 1386.21624,595.28538 1386.20223,595.817023 C1386.18261,596.560988 1386.22381,597.318363 1386.09797,598.045845 C1385.80425,599.744422 1384.22633,600.993769 1382.4895,600.993769 L1382.4895,600.993769 L1372.20052,600.993769 L1372.20052,597.137889 L1375.2392,597.137889 L1375.2392,595.615876 L1377.69409,595.615876 L1377.69409,597.128949 L1378.0817,597.128949 C1379.21343,597.128949 1380.34516,597.129229 1381.47689,597.128949 C1382.1585,597.128391 1382.36422,596.927244 1382.3645,596.262899 L1382.3645,596.262899 L1382.3645,594.208404 Z M1449.57276,596.707518 C1450.4416,596.32031 1451.33482,596.334558 1452.2073,596.682095 C1452.88863,596.953644 1453.21599,597.581391 1453.10865,598.312505 L1453.10865,598.312505 L1449.49905,598.312505 C1449.51559,599.080217 1449.96626,599.503185 1450.80062,599.533636 C1451.36144,599.55431 1451.88779,599.451222 1452.31464,599.038591 C1452.3735,598.981878 1452.51223,598.97238 1452.6036,598.991098 C1452.76531,599.023784 1452.91946,599.095024 1453.19973,599.193083 C1452.84884,599.421888 1452.58931,599.652369 1452.28577,599.776968 C1451.44216,600.12283 1450.56828,600.147135 1449.70337,599.847649 C1448.97971,599.597053 1448.58986,599.054515 1448.56379,598.322283 C1448.53661,597.559879 1448.88218,597.015385 1449.57276,596.707518 Z M1418.64557,596.707798 C1419.51301,596.319472 1420.40819,596.333999 1421.28123,596.679581 C1421.96508,596.950012 1422.28627,597.568261 1422.18033,598.31921 L1422.18033,598.31921 L1418.57662,598.31921 C1418.59204,598.977129 1418.9009,599.346458 1419.50179,599.474968 C1420.09456,599.601803 1420.70387,599.595936 1421.15987,599.198391 C1421.5444,598.862866 1421.8171,599.015682 1422.25236,599.205096 C1421.92781,599.423005 1421.68594,599.64762 1421.39978,599.765514 C1420.54552,600.117522 1419.66155,600.151046 1418.78318,599.849326 C1418.05168,599.598171 1417.65622,599.046134 1417.63688,598.292949 C1417.61754,597.543955 1417.9718,597.009518 1418.64557,596.707798 Z M1435.95446,596.599122 C1436.69606,596.361936 1437.4511,596.367524 1438.18933,596.60918 C1438.97044,596.864525 1439.36338,597.434162 1439.36366,598.239031 C1439.36366,599.057867 1438.95054,599.613816 1438.11338,599.881453 C1437.39168,600.112214 1436.66214,600.106626 1435.94297,599.864412 C1435.15009,599.597053 1434.72632,599.032444 1434.72015,598.260821 C1434.71315,597.447852 1435.13664,596.860334 1435.95446,596.599122 Z M1443.93542,595.212045 L1443.93542,596.829324 C1444.29921,596.716179 1444.64114,596.537661 1444.99232,596.517546 C1445.49624,596.488212 1446.02819,596.496034 1446.50942,596.628456 C1447.38834,596.870391 1447.78408,597.578318 1447.69804,598.542428 C1447.63498,599.25203 1446.97046,599.875307 1446.15572,599.988173 C1445.24904,600.11389 1444.88862,600.054943 1443.92981,599.635327 C1443.77623,599.748752 1443.64983,599.916933 1443.50296,599.936769 C1443.02426,600.001303 1443.01922,599.978674 1443.01922,599.500391 L1443.01922,595.212045 L1443.93542,595.212045 Z M1432.7664,595.4185 L1432.7664,596.520898 L1433.95166,596.520898 L1433.95166,596.991639 L1432.77761,596.991639 C1432.77761,597.731693 1432.76808,598.418107 1432.78321,599.103684 C1432.78826,599.326622 1432.93344,599.471616 1433.17615,599.474968 C1433.43091,599.478879 1433.6854,599.475806 1433.93484,599.475806 C1434.01556,599.973646 1434.00659,599.986217 1433.56068,599.98957 C1433.29218,599.991525 1433.0234,599.995157 1432.75518,599.988452 C1432.16718,599.973646 1431.89672,599.706008 1431.88999,599.124637 C1431.88355,598.557234 1431.86617,597.988435 1431.89672,597.422708 C1431.9155,597.074891 1431.79834,596.956717 1431.46398,597.005048 C1431.34515,597.02209 1431.22183,597.007563 1431.06768,597.007563 L1431.06768,597.007563 L1431.06768,596.532911 L1431.87626,596.532911 L1431.87626,595.4185 L1432.7664,595.4185 Z M1412.59035,596.529838 C1413.21114,596.420325 1413.61221,596.601357 1413.84932,597.248101 C1414.08446,597.888979 1414.46171,598.478452 1414.80391,599.143075 C1415.05335,598.673173 1415.28542,598.239031 1415.51524,597.80405 C1415.69685,597.459865 1415.888,597.119591 1416.05139,596.767024 C1416.14052,596.575096 1416.25851,596.50665 1416.46507,596.523971 C1416.67612,596.541572 1416.88968,596.527883 1417.1422,596.527883 C1417.10157,596.626501 1417.07774,596.705004 1417.03907,596.775405 C1416.49758,597.75963 1415.95947,598.74581 1415.40257,599.721374 C1415.34091,599.82949 1415.17555,599.893466 1415.04495,599.943194 C1414.95694,599.976998 1414.84287,599.934813 1414.74562,599.952693 C1414.41518,600.013037 1414.25038,599.85631 1414.1038,599.573866 C1413.58194,598.569247 1413.03345,597.578597 1412.47768,596.550791 C1412.54662,596.53794 1412.56848,596.533749 1412.59035,596.529838 Z M1407.93787,597.099476 C1408.46814,596.608062 1409.04858,596.370317 1409.75318,596.463627 L1409.75318,596.463627 L1409.75318,596.99108 C1409.59594,597.007563 1409.44432,597.026001 1409.29241,597.039132 C1408.84903,597.077126 1408.4673,597.256762 1408.18563,597.592566 C1408.06932,597.731413 1407.98215,597.93703 1407.9743,598.116387 C1407.94852,598.713403 1407.9645,599.312095 1407.9645,599.947664 C1407.6974,599.947664 1407.46449,599.960515 1407.23439,599.939562 C1407.16797,599.933416 1407.05782,599.82977 1407.05726,599.769705 C1407.04661,598.703625 1407.04941,597.637265 1407.04941,596.549394 L1407.04941,596.549394 L1407.90984,596.549394 C1407.91853,596.716737 1407.92638,596.87123 1407.93787,597.099476 Z M1424.71929,596.763672 C1425.44211,596.41809 1426.19631,596.338469 1426.96846,596.541013 C1427.42221,596.660025 1427.70669,596.972362 1427.71678,597.45288 C1427.73359,598.264174 1427.72126,599.076306 1427.72126,599.932019 L1427.72126,599.932019 L1426.80534,599.932019 L1426.80534,599.406522 C1426.80534,598.816211 1426.80954,598.225621 1426.80366,597.63531 C1426.79974,597.239999 1426.58757,597.019296 1426.19547,596.978229 C1425.61896,596.918164 1425.08897,597.04863 1424.59121,597.342249 C1424.42949,597.437794 1424.36223,597.545352 1424.36531,597.738118 C1424.37708,598.459734 1424.37008,599.181629 1424.37008,599.926432 L1424.37008,599.926432 L1423.46649,599.926432 L1423.46649,596.555261 L1424.30085,596.555261 C1424.31711,596.660304 1424.33476,596.775964 1424.35859,596.929898 C1424.48891,596.869833 1424.60494,596.818708 1424.71929,596.763672 Z M1411.56848,596.546042 L1411.56848,599.932299 L1410.70273,599.932299 L1410.70273,596.546042 L1411.56848,596.546042 Z M1400.17188,595.203654 C1401.34256,595.243055 1402.51353,595.274065 1403.6831,595.33413 C1403.93198,595.346702 1404.1817,595.447275 1404.41964,595.537512 C1405.30922,595.874713 1405.78288,596.532632 1405.79409,597.471319 C1405.80474,598.37676 1405.41516,599.074909 1404.56482,599.480276 C1403.9401,599.777807 1403.27923,599.914978 1402.59201,599.9228 C1401.77726,599.93174 1400.96252,599.924756 1400.10517,599.924756 L1400.10517,599.924756 L1400.10517,595.247525 C1400.13572,595.226851 1400.15422,595.203105 1400.17188,595.203654 Z M1486.73831,595.156589 C1488.02895,595.190952 1489.29269,595.201289 1490.55306,595.272528 C1490.92834,595.293761 1491.32296,595.432887 1491.65816,595.611406 C1492.43535,596.025154 1492.44712,596.987029 1491.70217,597.456652 C1491.47991,597.596896 1491.22879,597.693 1490.96842,597.820393 C1491.49392,598.507925 1492.01214,599.185959 1492.57464,599.922102 C1492.01579,599.922102 1491.51859,599.9316 1491.02307,599.912882 C1490.93955,599.90953 1490.84426,599.795267 1490.7826,599.712015 C1490.42329,599.229541 1490.08249,598.732819 1489.71113,598.259564 C1489.62621,598.151727 1489.44992,598.069592 1489.30922,598.058696 C1488.94487,598.030759 1488.57688,598.049198 1488.18394,598.049198 L1488.18394,598.049198 L1488.18394,599.898635 L1486.73831,599.898635 Z M1455.54766,595.126138 C1456.96331,595.193187 1458.34756,595.247106 1459.72957,595.334828 C1459.98517,595.351032 1460.25087,595.470882 1460.47957,595.599672 C1461.11998,595.960061 1461.14157,596.717715 1460.53338,597.126714 C1460.36017,597.243212 1460.1623,597.323112 1459.98097,597.41726 C1460.22312,597.518113 1460.47873,597.596337 1460.70603,597.724289 C1461.41287,598.122672 1461.46079,599.053537 1460.7447,599.430688 C1460.26628,599.682681 1459.69649,599.853656 1459.15782,599.883548 C1457.96499,599.949759 1456.76572,599.904222 1455.54766,599.904222 L1455.54766,599.904222 Z M1485.48635,595.216375 L1485.48635,595.965648 L1482.08471,595.965648 C1482.08471,596.306481 1482.06762,596.616303 1482.09789,596.921377 C1482.10489,596.99094 1482.27474,597.094028 1482.37199,597.096822 C1482.95411,597.113305 1483.53707,597.105203 1484.11947,597.105203 L1484.11947,597.105203 L1484.50989,597.105203 L1484.50989,597.847771 L1482.10573,597.847771 L1482.10573,599.128688 L1485.59453,599.128688 L1485.59453,599.911206 L1480.6203,599.911206 L1480.6203,595.216375 L1485.48635,595.216375 Z M1467.44175,595.211346 L1467.44175,595.966207 L1464.05721,595.966207 L1464.05721,597.099615 L1466.45856,597.099615 L1466.45856,597.849727 L1464.05665,597.849727 L1464.05665,599.132878 L1467.56787,599.132878 L1467.56787,599.902825 L1462.58607,599.902825 L1462.58607,595.211346 L1467.44175,595.211346 Z M1473.59563,595.210787 L1473.59563,595.959223 L1471.58245,595.959223 L1471.58245,599.901708 L1470.113,599.901708 L1470.113,595.981852 L1468.05526,595.981852 L1468.05526,595.210787 L1473.59563,595.210787 Z M1479.55612,595.211626 L1479.55612,595.975426 L1477.54827,595.975426 L1477.54827,599.899752 L1476.07657,599.899752 L1476.07657,595.984645 L1474.03985,595.984645 L1474.03985,595.211626 L1479.55612,595.211626 Z M1437.03939,596.914811 C1436.16971,596.925428 1435.65738,597.418238 1435.65597,598.245177 C1435.65513,599.073512 1436.15654,599.538944 1437.05144,599.538944 C1437.94998,599.538944 1438.44662,599.079938 1438.4469,598.249088 C1438.44718,597.405108 1437.91887,596.903916 1437.03939,596.914811 Z M1445.17087,596.971638 L1445.0977,596.984375 C1444.72942,597.129369 1444.32528,597.232456 1444.02062,597.463776 C1443.88609,597.566026 1443.95644,597.936751 1443.93626,598.185671 C1443.93122,598.252161 1443.93542,598.31921 1443.93542,598.386259 C1443.93542,599.110948 1444.08901,599.302038 1444.80678,599.459882 C1444.94859,599.490892 1445.09293,599.513242 1445.23727,599.529446 C1445.8931,599.60292 1446.51418,599.259853 1446.70785,598.720946 C1447.0523,597.76382 1446.43206,596.978787 1445.33116,596.980743 C1445.25297,596.980743 1445.16524,596.957835 1445.0977,596.984375 Z M1403.65703,595.984506 C1402.84649,595.719941 1402.00961,595.772463 1401.15422,595.78727 L1401.15422,595.78727 L1401.15422,599.334165 C1401.73018,599.334165 1402.2683,599.365175 1402.80025,599.322711 C1403.13797,599.295891 1403.48214,599.195877 1403.79689,599.06569 C1404.52138,598.765086 1404.79913,598.23484 1404.75569,597.341691 C1404.72458,596.695505 1404.34061,596.207723 1403.65703,595.984506 Z M1456.98937,597.789662 L1456.98937,599.223953 C1457.75927,599.168079 1458.4933,599.136231 1459.22144,599.050464 C1459.47929,599.020012 1459.73938,598.877533 1459.75227,598.538377 C1459.76544,598.191956 1459.54263,598.001425 1459.25311,597.96818 C1458.50703,597.882693 1457.75563,597.846654 1456.98937,597.789662 L1456.98937,597.789662 Z M1450.80006,596.912856 C1450.22159,596.926266 1449.53577,597.286654 1449.55118,597.858806 L1449.55118,597.858806 L1452.21178,597.858806 C1452.13639,597.215974 1451.63078,596.893579 1450.80006,596.912856 Z M1420.16575,596.916488 C1419.41183,596.849997 1418.67724,597.193903 1418.60829,597.854057 L1418.60829,597.854057 L1421.2745,597.854057 C1421.26245,597.32437 1420.84793,596.977111 1420.16575,596.916488 Z M1488.19011,595.933521 L1488.19011,597.265003 C1488.60799,597.265003 1488.98803,597.282045 1489.36612,597.259695 C1489.68534,597.240977 1490.00794,597.200189 1490.31819,597.124759 C1490.5696,597.063856 1490.75177,596.890646 1490.74589,596.600659 C1490.73972,596.312906 1490.5567,596.118185 1490.30278,596.089968 C1489.60267,596.012583 1488.89723,595.98241 1488.19011,595.933521 L1488.19011,595.933521 Z M1457.27945,595.937711 C1457.18528,595.932403 1457.08971,595.954194 1456.99245,595.963972 L1456.99245,595.963972 L1456.99245,597.194043 C1457.71191,597.1242 1458.38876,597.076428 1459.05944,596.984235 C1459.29683,596.951549 1459.48769,596.780015 1459.48125,596.496733 C1459.47396,596.201717 1459.2461,596.079911 1459.01544,596.054209 C1458.43949,595.990512 1457.85877,595.970397 1457.27945,595.937711 Z M1493.03509,594.951821 L1493.22487,594.964662 C1493.31456,594.973601 1493.3978,595.043165 1493.48356,595.08507 C1493.39611,595.126138 1493.30979,595.171396 1493.22011,595.206597 C1493.1705,595.226153 1493.11444,595.229505 1493.03597,595.24515 L1493.03597,595.24515 L1493.03597,596.140255 C1492.91769,596.150312 1492.82549,596.157576 1492.6918,596.168751 L1492.6918,596.168751 L1492.6918,595.313875 C1492.48776,595.203524 1492.36556,595.137313 1492.24337,595.071102 C1492.38042,595.033666 1492.51523,594.976954 1492.65452,594.963265 C1492.84314,594.944547 1493.03625,594.945944 1493.22487,594.964662 Z M1493.6534,595.003773 C1494.33754,594.749825 1494.28569,595.433726 1494.55279,595.704716 C1494.85155,595.457752 1494.75738,594.748149 1495.46507,595.006008 L1495.46507,595.006008 L1495.46507,596.147519 L1495.1492,596.147519 L1495.1492,595.482616 L1495.1492,595.482616 L1495.07717,595.452723 C1494.98749,595.630403 1494.91041,595.816185 1494.80335,595.98241 C1494.75206,596.06259 1494.64388,596.153386 1494.56148,596.153107 C1494.4802,596.153107 1494.37538,596.060076 1494.32241,595.980455 C1494.2145,595.81814 1494.13406,595.637667 1494.0427,595.464456 C1494.01663,595.472838 1493.99029,595.481219 1493.96394,595.4896 L1493.96394,595.4896 L1493.96394,596.142211 L1493.6534,596.142211 Z M1411.63995,595.207854 L1411.63995,595.848173 L1410.68928,595.848173 L1410.68928,595.207854 L1411.63995,595.207854 Z M1425.60102,581.895542 C1427.14587,581.855033 1428.69296,581.871795 1430.23892,581.890234 C1431.07777,581.900012 1431.91101,581.991366 1432.70782,582.283029 C1434.02284,582.764386 1434.70726,583.731289 1434.72212,585.128145 C1434.72492,585.36114 1434.72268,585.593856 1434.72268,585.86345 L1434.72268,585.86345 L1431.25798,585.86345 C1431.21342,585.693592 1431.14616,585.526807 1431.12934,585.354994 C1431.08338,584.883136 1430.79049,584.610191 1430.36757,584.543142 C1429.69744,584.436981 1429.01611,584.364624 1428.33814,584.352331 C1427.39895,584.33501 1426.45809,584.376078 1425.5189,584.411279 C1424.56402,584.447317 1423.94379,585.08149 1423.91184,586.149805 C1423.88017,587.205269 1423.90567,588.265203 1423.96985,589.31927 C1424.02983,590.297348 1424.42557,590.729535 1425.37989,590.760825 C1426.99004,590.813905 1428.60439,590.81614 1430.21398,590.75859 C1430.99817,590.730653 1431.3942,590.442621 1431.35215,589.526284 C1431.34403,589.350839 1431.35103,589.174276 1431.35103,588.980393 C1431.46819,588.966145 1431.55367,588.946868 1431.63915,588.946589 C1432.60272,588.944633 1433.56628,588.952176 1434.52985,588.940443 C1434.77705,588.93737 1434.86842,589.005257 1434.85356,589.260602 C1434.82694,589.725476 1434.88944,590.201803 1434.80956,590.655223 C1434.62374,591.710687 1433.89308,592.320274 1432.94353,592.710835 C1431.90513,593.137994 1430.80675,593.269019 1429.69969,593.293603 C1428.32216,593.324334 1426.94127,593.349198 1425.56627,593.283825 C1424.68146,593.24164 1423.78796,593.098044 1422.92753,592.883766 C1421.50628,592.529523 1420.61643,591.590557 1420.38829,590.139783 C1420.13997,588.560219 1420.16659,586.957746 1420.33391,585.377903 C1420.5231,583.592162 1421.68453,582.574972 1423.38185,582.171281 C1424.10326,581.999747 1424.85859,581.915098 1425.60102,581.895542 Z M1488.47671,581.918154 C1488.70961,581.916774 1488.83658,582.001703 1488.95933,582.187764 C1490.76988,584.931188 1492.58714,587.670142 1494.40357,590.409655 C1494.45094,590.480895 1494.50279,590.549062 1494.61097,590.699643 L1494.61097,590.699643 L1494.61097,581.951695 L1498.1079,581.951695 L1498.1079,593.236053 L1497.79848,593.236053 C1496.10705,593.236053 1494.41562,593.231862 1492.72392,593.241374 C1492.50671,593.242478 1492.38675,593.174312 1492.26652,592.994676 C1490.44,590.262147 1488.60479,587.535765 1486.77155,584.807706 C1486.70344,584.706853 1486.63394,584.606838 1486.56527,584.506544 C1486.54201,584.51269 1486.51875,584.518836 1486.49548,584.525262 L1486.49548,584.525262 L1486.49548,593.216497 L1483.14206,593.216497 L1483.14206,581.945829 C1483.25529,581.938286 1483.36235,581.924596 1483.46941,581.924596 C1485.13842,581.9232 1486.8077,581.928228 1488.47671,581.918154 Z M1472.0047,581.911187 C1473.38195,581.944152 1474.76059,581.92739 1476.13868,581.919568 C1476.34328,581.91845 1476.45791,581.981588 1476.55376,582.166532 C1478.42484,585.769301 1480.30237,589.368439 1482.17793,592.968695 C1482.21717,593.044684 1482.24492,593.127098 1482.29004,593.235773 C1481.10758,593.235773 1479.95567,593.240243 1478.80404,593.225995 C1478.7194,593.225157 1478.60674,593.104748 1478.55741,593.013394 C1478.26565,592.475605 1477.98005,591.934184 1477.71183,591.384661 C1477.62551,591.207819 1477.52153,591.148871 1477.32814,591.14943 C1475.12102,591.155576 1472.9139,591.155297 1470.70649,591.149709 C1470.51535,591.14943 1470.40969,591.19832 1470.32449,591.383543 C1470.06832,591.938653 1469.79141,592.485103 1469.50498,593.025407 C1469.45509,593.119276 1469.3186,593.225995 1469.22051,593.227113 C1468.63825,593.234097 1468.05591,593.236332 1467.46602,593.236821 L1465.66613,593.236053 C1466.30122,591.990616 1466.9108,590.79407 1467.52235,589.598362 C1468.74741,587.202196 1469.98032,584.809941 1471.19192,582.40735 C1471.37466,582.045564 1471.5801,581.901129 1472.0047,581.911187 Z M1456.4051,581.920126 L1459.128,581.928508 C1460.42424,581.936051 1461.72049,581.98969 1462.95256,582.473002 C1463.98535,582.877811 1464.48927,583.659491 1464.64875,584.722219 C1464.79645,585.709516 1464.65379,586.6049 1463.95116,587.363114 C1463.5201,587.828266 1462.97554,588.096463 1462.37744,588.274981 C1462.28467,588.302639 1462.19162,588.330017 1462.0798,588.363262 C1462.4775,588.464115 1462.84465,588.521107 1463.18378,588.650735 C1463.97974,588.95497 1464.43266,589.565396 1464.47722,590.399319 C1464.52711,591.329624 1464.48871,592.264959 1464.48871,593.217056 L1464.48871,593.217056 L1460.89369,593.217056 L1460.89369,592.472811 C1460.89369,592.004585 1460.89594,591.536638 1460.89313,591.068692 C1460.88977,590.50548 1460.64117,590.132519 1460.09941,589.969367 C1459.74963,589.863764 1459.37968,589.773527 1459.01729,589.769057 C1457.37071,589.748105 1455.72384,589.759838 1454.03662,589.759838 L1454.03662,589.759838 L1454.03662,593.212865 L1450.56324,593.212865 L1450.56324,581.923479 L1450.95926,581.923479 C1453.68208,581.923479 1456.40518,581.912583 1459.128,581.928508 Z M1448.61368,581.918447 C1448.88666,581.917891 1448.98252,581.98522 1448.97495,582.270178 C1448.95477,582.990956 1448.96822,583.712571 1448.96822,584.467153 L1448.96822,584.467153 L1443.94103,584.467153 L1443.94103,593.217335 L1440.33592,593.217335 L1440.33592,584.473578 L1435.43568,584.473578 L1435.43568,581.950019 C1435.53462,581.941638 1435.64056,581.924876 1435.7465,581.924876 C1440.03547,581.923479 1444.32443,581.925993 1448.61368,581.918447 Z M1417.85073,581.944152 L1417.85073,584.45514 L1409.52672,584.45514 L1409.52672,586.355422 L1417.48049,586.355422 L1417.48049,588.549323 L1409.5256,588.549323 L1409.5256,590.817537 L1409.95329,590.817537 C1412.49702,590.817537 1415.04046,590.822007 1417.58391,590.811391 C1417.88296,590.810274 1417.9931,590.878161 1417.98049,591.197482 C1417.95415,591.862665 1417.97264,592.529523 1417.97264,593.215659 L1417.97264,593.215659 L1406.04829,593.215659 L1406.04829,581.944152 L1417.85073,581.944152 Z M1404.77194,581.951137 L1404.77194,584.453743 L1399.78034,584.453743 L1399.78034,593.211748 L1396.16262,593.211748 L1396.16262,584.486429 L1391.25678,584.486429 L1391.25678,581.951137 L1404.77194,581.951137 Z M1383.02751,579.00014 C1383.35262,579.111609 1383.69455,579.189553 1384.00004,579.340414 C1385.40531,580.03493 1386.17269,581.155767 1386.17718,582.735611 C1386.18698,585.977712 1386.18026,589.220093 1386.18026,592.462474 L1386.18026,592.879855 L1382.26853,592.879855 L1382.26853,589.884438 L1380.77049,589.884438 L1380.77049,587.452233 L1382.22734,587.452233 C1382.24611,587.358644 1382.26573,587.305563 1382.26573,587.252203 C1382.26797,585.982182 1382.27358,584.711882 1382.26517,583.441581 C1382.26237,583.014982 1382.0219,582.804336 1381.57907,582.802939 C1380.8428,582.800425 1380.10682,582.80238 1379.32963,582.80238 L1379.32963,579.00014 L1383.02751,579.00014 Z M1473.99714,584.025467 C1473.16334,585.621235 1472.36793,587.14269 1471.56524,588.677834 L1471.56524,588.677834 L1476.48257,588.677834 C1475.65325,587.125369 1474.84524,585.612295 1473.99714,584.025467 Z M1454.31969,584.467153 C1454.2244,584.467153 1454.12911,584.482239 1454.03129,584.49062 L1454.03129,584.49062 L1454.03129,587.301652 C1454.35697,587.301652 1454.64648,587.305004 1454.93628,587.301093 C1456.50299,587.28014 1458.07054,587.276788 1459.6364,587.227619 C1460.50552,587.199961 1460.86959,586.883992 1461.00832,586.180815 C1461.18405,585.289901 1460.84605,584.724174 1460.02514,584.559625 C1459.78495,584.511573 1459.53775,584.479166 1459.29364,584.477769 C1457.63556,584.46827 1455.97777,584.46855 1454.31969,584.467153 Z M1377.98501,579 L1377.98501,582.86482 L1374.948,582.86482 L1374.948,584.392142 L1372.50433,584.392142 L1372.50433,582.871804 L1372.15624,582.871804 C1370.99116,582.871804 1369.82636,582.870687 1368.66156,582.872363 C1368.03964,582.873201 1367.82355,583.093625 1367.82327,583.719416 L1367.82327,585.820845 L1367.82327,585.820845 L1364.00011,585.820845 L1364.00011,582.142925 C1364.0245,582.082022 1364.05813,582.022795 1364.07186,581.959378 C1364.27982,581.005326 1364.76749,580.215264 1365.5912,579.694237 C1366.06878,579.392237 1366.63409,579.226849 1367.16015,579 L1377.98501,579 Z M1499.41255,581.251591 C1500.12724,580.764089 1501.17236,580.894834 1501.67769,581.557782 C1501.81222,581.734624 1501.87248,581.967061 1502,582.246153 C1501.84725,582.502895 1501.73795,582.802101 1501.53363,583.009115 C1500.97393,583.576238 1499.98374,583.60641 1499.35397,583.119467 C1498.66171,582.584192 1498.68805,581.745799 1499.41255,581.251591 Z M1500.39209,581.22671 C1499.81081,581.223934 1499.2968,581.558341 1499.19674,582.004496 C1499.05409,582.64258 1499.64097,583.214732 1500.41592,583.192662 C1501.19591,583.170591 1501.73178,582.610173 1501.57455,581.981029 C1501.46805,581.555268 1500.9574,581.229521 1500.39209,581.22671 Z M1500.33952,581.480758 L1500.62528,581.494924 C1501.09893,581.542975 1501.21412,581.852519 1500.93946,582.201732 C1501.0042,582.440315 1501.06306,582.657666 1501.12556,582.888985 C1500.91592,582.954358 1500.72533,582.995146 1500.72001,582.746786 C1500.71076,582.328288 1500.46076,582.319068 1500.12163,582.353152 C1500.11696,582.420573 1500.11254,582.484766 1500.10823,582.547387 L1500.08268,582.917481 L1499.75392,582.917481 L1499.75392,581.489616 C1500.05241,581.489616 1500.34136,581.466148 1500.62528,581.494924 Z M1500.15947,581.697747 C1500.13396,581.727919 1500.10846,581.758091 1500.08268,581.787984 C1500.12219,581.895821 1500.14321,582.081044 1500.20403,582.095013 C1500.34221,582.126582 1500.5028,582.084955 1500.64686,582.046123 C1500.67657,582.0383 1500.69534,581.855312 1500.68385,581.851122 C1500.51261,581.790219 1500.33548,581.746078 1500.15947,581.697747 Z" id="Tectran-White"></path>
    </g>
  </g>
</svg>
