<?xml version="1.0" encoding="UTF-8"?>
<svg xmlns="http://www.w3.org/2000/svg" width="144" height="37" viewBox="0 0 144 37" fill="none">
  <path fill-rule="evenodd" clip-rule="evenodd" d="M22.154 0.226634C21.8636 0.151323 21.5734 0.0760417 21.2836 0L16.5355 0.0254837C16.2983 0.0859947 16.0579 0.145923 15.8173 0.205883C15.2608 0.344586 14.7037 0.483457 14.1838 0.6301C13.6556 0.779078 13.1226 0.945666 12.5586 1.12192C12.3275 1.19415 12.0912 1.26801 11.8479 1.34294C11.8479 2.46847 11.8443 3.58758 11.8408 4.70243C11.8337 6.91943 11.8267 9.11955 11.8479 11.3197C11.8413 12.6272 11.921 13.9338 12.0866 15.2308C12.4748 17.9581 15.323 20.5962 18.2635 20.5803C18.9286 20.5781 19.5938 20.5401 20.313 20.4989C20.664 20.4788 21.0278 20.458 21.4109 20.4403L22.6838 22.9861C20.8817 23.8507 18.8388 24.0752 16.892 23.6226C12.8917 22.7952 10.2663 20.3289 9.0729 16.4559C8.76738 15.3482 8.61848 14.2031 8.63054 13.054C8.58916 10.6996 8.59595 8.34524 8.60291 5.93445C8.60559 5.00845 8.60828 4.07412 8.60828 3.12828C6.51429 4.27711 5.00584 5.85234 3.69152 7.62491C1.88713 10.0562 0.652372 12.7358 0.267307 15.7686C0.258657 15.8529 0.180953 15.9284 0.103078 16.0041C0.0663473 16.0398 0.0295784 16.0756 0 16.1123V21.4809C0.0289823 21.5159 0.0642407 21.5502 0.0996651 21.5847C0.177043 21.6601 0.255212 21.7363 0.270492 21.8214C1.3875 28.4916 5.21589 33.0901 11.2305 36.0179L11.26 36.0326C11.7665 36.286 12.2948 36.5503 13.019 36.438C7.59629 31.8681 7.71402 25.7357 10.8168 21.8182C11.0639 22.0143 11.3111 22.21 11.5573 22.405C12.0783 22.8177 12.595 23.227 13.0986 23.629C11.3037 28.4884 11.5647 30.837 14.3461 33.262C15.3265 34.1543 16.5502 34.7348 17.8615 34.9298C19.1728 35.1247 20.5124 34.9252 21.71 34.3567C23.9281 33.3797 25.9171 30.8593 25.5702 28.848C21.8246 28.6252 21.0195 28.1193 20.7012 25.7103H28.7399C29.5832 30.0701 28.2721 33.5102 24.6824 36.3743C27.0882 36.1388 28.7526 34.8913 30.3947 33.6502C34.6972 30.4042 36.9758 25.9966 37.6313 20.7394C38.5447 13.4231 34.1467 5.53411 28.9785 3.26191C28.9785 3.94143 28.98 4.62201 28.9814 5.29984C28.9842 6.64732 28.987 7.98394 28.9785 9.27972C28.9753 9.77976 28.976 10.2798 28.9767 10.7797C28.9788 12.2268 28.9808 13.6725 28.8862 15.113C28.8432 16.6068 28.2649 18.0354 27.2569 19.1386C26.334 17.6175 25.6116 16.3 25.6975 14.4638C25.838 11.4849 25.8066 8.49828 25.7752 5.51147C25.7618 4.2353 25.7484 2.95911 25.7484 1.68348C25.7127 1.50333 25.6527 1.3288 25.5702 1.16471C25.3773 1.10974 25.181 1.05258 24.9824 0.994713C24.5945 0.881746 24.1975 0.766094 23.7977 0.658769C23.2505 0.511068 22.7021 0.368797 22.154 0.226634ZM22.8371 13.4499C24.6787 17.038 26.5073 20.6007 28.3675 24.2114H24.7905L18.9 12.7994L15.9181 18.4322C14.8907 18.0506 14.3954 17.2607 13.8746 16.43C13.7872 16.2907 13.6992 16.1503 13.6077 16.0104L18.8746 5.73461C20.2126 8.33663 21.5281 10.8996 22.8371 13.4499Z" fill="white"></path>
  <path d="M62.3428 21.0418H65.7639V8.97105L75.6674 21.0386H78.3787V2.96917H74.9641V14.9157L65.1497 2.94688H62.3428V21.0418Z" fill="white"></path>
  <path fill-rule="evenodd" clip-rule="evenodd" d="M128.452 21.05C127.456 21.0513 126.46 21.0526 125.468 21.0736H125.458C125.395 21.0736 125.332 21.0318 125.254 20.98C125.218 20.9561 125.178 20.93 125.134 20.9049V2.92776C125.242 2.91682 125.345 2.904 125.445 2.89156C125.665 2.86421 125.87 2.83865 126.089 2.83865C126.8 2.83778 127.511 2.83284 128.222 2.8279C130.103 2.81483 131.983 2.80177 133.863 2.86413C136.539 2.95006 138.936 3.86021 140.75 5.88418C143.197 8.61464 143.522 11.8861 142.43 15.1703C141.338 18.4545 138.802 20.4085 135.429 20.7872C133.13 21.0438 130.791 21.0469 128.452 21.05ZM130.555 5.70295C129.847 5.72897 129.137 5.75503 128.431 5.73462V18.1808C128.84 18.1948 129.247 18.2153 129.653 18.2357C131.65 18.3362 133.604 18.4346 135.496 17.7416C136.422 17.3818 137.267 16.8409 137.981 16.1505C139.483 14.7089 139.649 12.8249 139.448 10.89C139.377 10.0505 139.106 9.24021 138.658 8.52703C138.209 7.81385 137.596 7.21861 136.87 6.79119C134.866 5.54459 132.718 5.62352 130.555 5.70295Z" fill="white"></path>
  <path d="M110.979 13.1972V18.2635L121.2 18.2667V21.0099H107.516V3.07732C108.582 2.76864 117.573 2.65408 120.819 2.92776V5.65188H110.953V10.3809H119.641V13.1972H110.979Z" fill="white"></path>
  <path d="M43.2137 18.8395C41.944 17.2738 41.4889 15.4567 41.4252 13.5759H41.4157C41.3264 10.9149 41.3542 8.25021 41.3826 5.52919C41.3916 4.66095 41.4007 3.78697 41.4061 2.90554H44.8399C44.8399 3.61565 44.8359 4.31714 44.832 5.0129C44.8243 6.38751 44.8167 7.73976 44.8399 9.09202C44.8427 9.23683 44.8454 9.38167 44.848 9.52654C44.8794 11.2156 44.9107 12.9085 45.069 14.588C45.3554 17.5889 47.7645 18.4577 49.9921 18.3209C52.398 18.1713 53.9192 16.6629 54.0083 14.117C54.0816 12.0182 54.0742 9.91751 54.0668 7.81641C54.0646 7.18085 54.0624 6.54526 54.0624 5.90967V2.89599C54.2308 2.88889 54.3983 2.88081 54.5634 2.87284C54.9911 2.85218 55.4034 2.83228 55.7776 2.83228H57.4993V5.26045C57.4984 6.12045 57.5036 6.98074 57.5089 7.84105C57.5212 9.87455 57.5336 11.9082 57.4643 13.9387C57.3752 16.5196 56.4587 18.7791 54.1355 20.2048C51.0932 22.076 45.5591 21.7355 43.2137 18.8395Z" fill="white"></path>
  <path d="M89.4311 5.65188V2.93732L104.83 2.92776V5.67736H98.8413V21.0036H95.6239V5.76329C94.4622 5.67056 93.337 5.67882 92.2125 5.68708C91.2915 5.69384 90.371 5.70059 89.4311 5.65188Z" fill="white"></path>
  <path d="M86.3951 20.9908H83.235V2.90554H86.3951V20.9908Z" fill="white"></path>
  <path fill-rule="evenodd" clip-rule="evenodd" d="M61.3383 33.2023C60.8774 33.7254 60.3152 34.1495 59.6856 34.449L58.8327 34.8818C60.2011 36.0243 60.6848 36.0243 62.4542 35.0695L62.9571 35.7888C61.4804 37.3036 59.6792 37.4245 58.0307 35.9988C57.2783 35.356 56.3839 34.9012 55.4212 34.6717C53.1745 34.0766 51.8761 31.8077 52.0829 29.0613C52.1886 27.9544 52.664 26.9154 53.4324 26.1117C54.2009 25.3081 55.2176 24.7865 56.3186 24.6314C58.9791 24.3036 60.9076 25.2297 62.0151 27.3651C62.344 27.9797 62.5449 28.6548 62.6053 29.3493C62.6658 30.0439 62.5847 30.7435 62.3669 31.4058C62.1491 32.0681 61.7992 32.6792 61.3383 33.2023ZM60.0743 32.4822C60.7918 31.7332 61.1909 30.735 61.1877 29.6978C61.1686 28.6877 60.7563 27.7248 60.0384 27.0141C59.3205 26.3033 58.3536 25.9006 57.3434 25.8917C56.8288 25.8862 56.3182 25.9828 55.8412 26.176C55.3643 26.3691 54.9303 26.6549 54.5645 27.0169C54.1987 27.3788 53.9083 27.8097 53.7102 28.2847C53.512 28.7596 53.41 29.2691 53.41 29.7837C53.3623 31.8554 55.2398 33.733 57.3402 33.7139C58.3766 33.6727 59.3567 33.2312 60.0743 32.4822Z" fill="white"></path>
  <path fill-rule="evenodd" clip-rule="evenodd" d="M106.81 25.0388C108.98 25.8312 109.588 28.8799 107.968 30.5538H107.952C107.578 30.8981 107.185 31.2211 106.775 31.5212L109.003 34.8913L107.475 34.9836L105.362 31.9159H102.32V34.78L100.853 34.9678V24.7015C101.296 24.6943 101.744 24.6706 102.195 24.6467C103.727 24.5657 105.29 24.4831 106.81 25.0388ZM107.357 28.4916C107.516 27.0946 106.581 26.0508 105.012 25.9458H104.996C104.44 25.9097 103.878 25.9175 103.284 25.9257C102.989 25.9299 102.685 25.9341 102.371 25.933V30.6302C102.728 30.6004 103.082 30.5767 103.429 30.5534C104.233 30.4995 105.005 30.4478 105.718 30.3279C106.74 30.156 107.246 29.4941 107.357 28.4916Z" fill="white"></path>
  <path fill-rule="evenodd" clip-rule="evenodd" d="M115.685 35.0059C112.398 34.9995 110.304 32.8578 110.256 29.701H110.24C110.19 26.5441 113 24.3546 115.523 24.6028C118.623 24.5901 120.971 26.8432 120.901 29.7646C120.895 31.1482 120.344 32.4737 119.368 33.4544C118.392 34.4352 117.069 34.9926 115.685 35.0059ZM115.536 25.8821C113.359 25.8821 111.768 27.4956 111.768 29.701H111.752C111.743 32.0654 113.219 33.5611 115.574 33.5579C116.077 33.5896 116.581 33.5152 117.053 33.3395C117.526 33.1639 117.956 32.891 118.316 32.5384C118.676 32.1859 118.958 31.7615 119.143 31.293C119.329 30.8245 119.414 30.3222 119.393 29.8187C119.371 27.591 117.84 25.8821 115.536 25.8821Z" fill="white"></path>
  <path d="M91.1527 27.6101C90.1598 28.9722 90.3539 31.1203 91.5282 32.4123H91.5123C92.7503 33.7744 94.7233 33.9907 96.6677 32.9055V29.7869L98.0616 29.7169V33.5834C96.1999 35.4928 92.6802 35.5342 90.5926 33.5834C88.5686 31.6931 88.5591 28.0683 90.5353 26.0635C92.5116 24.0586 95.9453 24.0554 98.103 26.0826C98.0638 26.2208 98.0048 26.3527 97.9279 26.474C97.7597 26.6462 97.5801 26.8067 97.3901 26.9545C96.1776 26.2162 94.927 25.5989 93.4185 25.9998C92.4966 26.2518 91.6938 26.8223 91.1527 27.6101Z" fill="white"></path>
  <path fill-rule="evenodd" clip-rule="evenodd" d="M140.32 31.2858C139.537 31.577 138.718 31.7632 137.886 31.8395H137.87C137.118 31.884 136.365 31.885 135.613 31.8427V34.9295L134.439 34.8755C134.378 34.8209 134.33 34.7816 134.294 34.7519C134.235 34.7036 134.207 34.6807 134.207 34.659V24.6728C134.684 24.672 135.166 24.651 135.65 24.6299C137.146 24.5647 138.671 24.4982 140.171 25.0197C141.593 25.5162 142.166 26.6904 142.23 28.1034C142.293 29.5164 141.676 30.7098 140.32 31.2858ZM136.65 25.9246C136.339 25.9303 136.023 25.9362 135.699 25.9362V30.5983C136.036 30.5729 136.368 30.5563 136.693 30.5399C137.389 30.505 138.06 30.4713 138.71 30.3565C140.263 30.0828 140.788 29.424 140.718 28.0684C140.648 26.8686 139.798 26.0349 138.42 25.9362C137.84 25.9025 137.255 25.9134 136.65 25.9246Z" fill="white"></path>
  <path d="M71.5271 31.273C71.5685 29.9078 71.5685 28.5425 71.5685 27.1741H71.5526C71.554 27.0043 71.5549 26.8345 71.5558 26.6633C71.5592 26.0479 71.5627 25.4131 71.5876 24.6887H72.9082C72.9807 24.8287 73.0312 24.9789 73.0579 25.1342C73.0579 25.7825 73.0632 26.4308 73.0685 27.0789C73.0791 28.3748 73.0897 29.6703 73.0579 30.9643C73.0038 33.2143 71.4889 34.8818 69.4236 35.0027C66.7663 35.1587 65.0351 34.0289 64.8124 31.5976C64.661 30.0351 64.614 28.4648 64.5656 26.8508C64.5448 26.1572 64.5238 25.4555 64.4941 24.7428L66.0853 24.6696V29.65C66.0602 30.1744 66.0751 30.7 66.1299 31.2221C66.4417 33.2843 68.4148 34.2771 70.3051 33.3224C70.6862 33.1369 71.0049 32.8441 71.2219 32.4801C71.439 32.116 71.5451 31.6965 71.5271 31.273Z" fill="white"></path>
  <path fill-rule="evenodd" clip-rule="evenodd" d="M42.5773 34.8787L41.1038 34.9518H41.0879C42.6218 31.429 44.0698 28.1034 45.5655 24.6983H47.0612L51.491 34.6877C50.1958 35.06 50.0749 35.0154 49.6294 34.0321C49.4497 33.6323 49.2716 33.2294 49.0906 32.8199C49.0151 32.6492 48.9392 32.4773 48.8624 32.3041H43.7929L42.5773 34.8787ZM44.2607 31.1107H48.3978C47.7168 29.4941 47.1026 28.0334 46.5075 26.5759L46.1701 26.5376L44.2607 31.1107Z" fill="white"></path>
  <path fill-rule="evenodd" clip-rule="evenodd" d="M84.6384 34.8468L83.1905 34.9646L81.9843 32.3073H76.9149C76.681 32.8007 76.4512 33.2878 76.2191 33.78C76.047 34.145 75.8735 34.5129 75.696 34.8882H74.2321L78.6874 24.7047H80.1832L84.6384 34.8468ZM81.4402 31.098C80.8902 29.4356 80.1981 27.8236 79.3716 26.2799H79.3398L79.2644 26.4584C78.563 28.1192 77.9773 29.5062 77.3381 31.098H81.4402Z" fill="white"></path>
  <path d="M127.021 35.0091C124.781 34.9868 123.069 33.5548 122.97 31.4289H122.944C122.861 29.638 122.899 27.8429 122.938 25.9744C122.947 25.552 122.956 25.1258 122.964 24.6951H124.306C124.306 25.2595 124.303 25.8206 124.3 26.3796C124.294 27.4913 124.287 28.5945 124.306 29.6978C124.317 30.3758 124.392 31.0513 124.529 31.7153C124.847 33.2269 125.926 33.7043 127.171 33.7043C128.561 33.7075 129.398 33.0106 129.732 31.6167C129.856 31.0557 129.917 30.4824 129.914 29.9078V24.7556L131.187 24.6792C131.187 25.4128 131.197 26.1364 131.207 26.8518C131.229 28.4516 131.25 30.0106 131.158 31.5498C131.04 33.6884 129.261 35.0314 127.021 35.0091Z" fill="white"></path>
</svg>
