<?xml version="1.0" encoding="UTF-8"?>
<svg xmlns="http://www.w3.org/2000/svg" width="127" height="21" viewBox="0 0 127 21" fill="none">
  <path fill-rule="evenodd" clip-rule="evenodd" d="M21.0504 17.9375C20.9808 17.8974 20.9534 17.811 20.9871 17.7372L22.1421 15.1386C22.1779 15.0543 22.2791 15.0206 22.3592 15.0649C24.0874 16.0111 26.2392 16.5823 28.1676 16.5823C31.1751 16.5823 31.8074 15.4379 31.8074 14.4768C31.8074 12.8405 29.8923 12.4121 27.6708 11.9151L27.666 11.914C24.5911 11.227 21.1031 10.4472 21.1031 6.67676C21.1031 3.26251 24.0789 1.1423 28.8694 1.1423C31.0529 1.1423 33.1899 1.59753 34.8423 2.40262C34.9181 2.43845 34.9497 2.52908 34.9181 2.60495L33.8327 5.22043C33.7969 5.30263 33.7021 5.33846 33.6199 5.30052C31.9865 4.52915 30.3827 4.13925 28.842 4.13925C25.6996 4.13925 25.2297 5.55975 25.2297 6.40699C25.2297 7.99415 27.1155 8.40396 29.304 8.87952L29.312 8.88127C32.4038 9.55147 35.9087 10.3123 35.9087 14.0722C35.9087 17.4169 32.8611 19.5793 28.1423 19.5793C25.5079 19.5793 22.8102 18.9449 21.0504 17.9375ZM19.8786 18.5529C21.8028 19.8933 24.9704 20.7258 28.1423 20.7258C34.72 20.7258 37.0531 17.1429 37.051 14.0743C37.051 9.39289 32.7187 8.45196 29.5555 7.76496L29.5523 7.76426L29.546 7.7629C27.9841 7.424 26.372 7.07419 26.372 6.4091C26.372 5.43119 27.9189 5.28577 28.8399 5.28577C30.4143 5.28577 32.0771 5.75154 33.7885 6.67043L33.8833 6.72102C34.1299 6.85379 34.4376 6.7442 34.5451 6.48497L36.2606 2.35204C36.3513 2.13285 36.267 1.87995 36.0604 1.75982L35.9867 1.71766C34.1025 0.625947 31.5081 0 28.8673 0C24.7576 0 19.9565 1.74928 19.9565 6.67886C19.9565 11.3657 24.2619 12.3282 27.4102 13.032L27.4152 13.0332C29.0865 13.4062 30.663 13.7582 30.663 14.479C30.663 15.3157 29.0991 15.44 28.1676 15.44C26.1739 15.44 23.9124 14.7635 22.2706 13.6781L22.1737 13.6149C21.9292 13.4526 21.5983 13.5495 21.4782 13.8172L19.6488 17.9248C19.5561 18.1314 19.6235 18.3758 19.8111 18.5065L19.8786 18.5529ZM1.14441 1.67764C1.14441 1.58912 1.21606 1.51957 1.30247 1.51957H5.16774C5.25626 1.51957 5.32581 1.59123 5.32581 1.67764V11.2228C5.32581 15.4316 7.58301 16.3147 9.4756 16.3147C11.3555 16.3147 13.598 15.4316 13.598 11.2228V1.67764C13.598 1.58912 13.6696 1.51957 13.7561 1.51957H17.5433C17.6319 1.51957 17.7014 1.59123 17.7014 1.67764V11.3851C17.7014 16.6708 14.7614 19.5814 9.42291 19.5814C4.08445 19.5814 1.14441 16.6708 1.14441 11.3851V1.67764ZM0 11.3851C0 17.2336 3.52173 20.7258 9.42291 20.7258C15.322 20.7258 18.8458 17.2336 18.8437 11.3851V0.849369C18.8437 0.588032 18.6308 0.375168 18.3695 0.375168H12.9278C12.6664 0.375168 12.4536 0.588032 12.4536 0.849369V11.2228C12.4536 14.7614 10.7549 15.1702 9.4756 15.1702C8.07618 15.1702 6.47021 14.7213 6.47021 11.2228V0.849369C6.47021 0.588032 6.25735 0.375168 5.99601 0.375168H0.474201C0.212864 0.375168 0 0.588032 0 0.849369V11.3851ZM37.778 10.3629C37.778 4.55655 42.2208 0.440486 48.2716 0.440486C51.6669 0.440486 54.4278 1.63547 56.2824 3.80415C56.392 3.93272 56.3773 4.12872 56.2508 4.24253L53.2813 6.92967C53.1527 7.04558 52.9525 7.03926 52.8387 6.9107C51.6774 5.61666 50.2696 4.91062 48.5456 4.91062C45.4116 4.91062 43.2303 7.09195 43.2303 10.3608C43.2303 13.6317 45.4116 15.813 48.5456 15.813C50.2696 15.813 51.6774 15.1091 52.8387 13.813C52.9546 13.6844 53.1548 13.6781 53.2813 13.794L56.2508 16.4811C56.3773 16.5949 56.392 16.7888 56.2824 16.9195C54.4278 19.0882 51.6669 20.2832 48.2716 20.2832C42.2208 20.2832 37.778 16.1671 37.778 10.3629ZM73.0397 19.5856V5.44597C73.0397 5.27104 72.8985 5.12983 72.7235 5.13405H68.1775C68.0026 5.13405 67.8614 5.27525 67.8614 5.45018V12.2471C67.8614 14.7277 66.6074 15.7351 65.0815 15.7351C63.5282 15.7351 62.6283 14.8352 62.6283 12.5463V5.44807C62.6283 5.27315 62.4871 5.13194 62.3122 5.13194H57.7662C57.5912 5.13194 57.45 5.27315 57.45 5.44807V13.3894C57.45 18.0766 60.0929 20.1483 63.7179 20.1483C65.2775 20.1483 66.7444 19.6362 67.8403 18.5929C67.9415 18.4981 68.1059 18.5676 68.1059 18.7067V19.5856C68.1059 19.7605 68.2471 19.9017 68.422 19.9017H72.7235C72.8985 19.9017 73.0397 19.7605 73.0397 19.5856ZM104.394 11.0984H110.053C110.154 11.0984 110.23 11.0057 110.209 10.9067C109.878 9.46508 108.763 8.56304 107.222 8.56304C105.682 8.56304 104.592 9.46297 104.24 10.9045C104.215 11.0036 104.293 11.0984 104.394 11.0984ZM114.723 13.8235H104.497C104.39 13.8235 104.31 13.931 104.345 14.0322C104.836 15.4021 106.086 16.1945 107.903 16.1945C109.243 16.1945 110.162 15.8426 111.094 15.0944C111.22 14.9932 111.404 15.0101 111.515 15.126L113.829 17.5307C113.945 17.653 113.95 17.8469 113.832 17.967C112.422 19.4043 110.415 20.1462 107.741 20.1462C102.48 20.1462 99.0744 16.9027 99.0744 12.4873C99.0744 8.04458 102.535 4.88324 107.197 4.88324C111.558 4.88324 115.1 7.66311 115.1 12.5421C115.1 12.7808 115.078 13.0609 115.056 13.3377V13.3378V13.3379V13.338C115.051 13.4032 115.046 13.4683 115.041 13.5327C115.024 13.6971 114.89 13.8235 114.723 13.8235ZM126.454 9.19319V5.20568C126.454 5.02865 126.308 4.88322 126.133 4.88955C124.281 4.94856 122.784 5.52181 121.769 6.58824C121.67 6.69151 121.495 6.62196 121.495 6.47865V5.44594C121.495 5.27102 121.353 5.12981 121.178 5.12981H116.877C116.702 5.12981 116.561 5.27102 116.561 5.44594V19.5856C116.561 19.7605 116.702 19.9017 116.877 19.9017H121.423C121.598 19.9017 121.739 19.7605 121.739 19.5856V13.1154C121.739 10.5252 123.183 9.46296 125.282 9.46296C125.56 9.46296 125.809 9.47771 126.104 9.50721C126.291 9.52618 126.454 9.38076 126.454 9.19319ZM97.8667 16.0238C97.8035 15.8468 97.6033 15.773 97.4347 15.8552C97.0532 16.0407 96.6085 16.1397 96.1638 16.1397C95.2365 16.1397 94.6106 15.5412 94.6106 14.4495V9.70324C94.6106 9.61472 94.6822 9.54307 94.7707 9.54307H97.6749C97.8499 9.54307 97.9911 9.40186 97.9911 9.22693V5.98972C97.9911 5.81479 97.8499 5.67358 97.6749 5.67358H94.7707C94.6822 5.67358 94.6106 5.60192 94.6106 5.51341V2.14552C94.6106 1.9706 94.4694 1.82939 94.2944 1.82939H89.7484C89.5735 1.82939 89.4323 1.9706 89.4323 2.14552V5.51341C89.4323 5.60192 89.3606 5.67358 89.2721 5.67358H88.9876L84.7029 9.54517H89.2721C89.3606 9.54517 89.4323 9.61683 89.4323 9.70535V14.5064C89.4323 18.2958 91.641 20.1483 95.4283 20.1483C96.6739 20.1483 97.8984 19.9207 98.7856 19.4444C98.9247 19.3685 98.9901 19.2062 98.9374 19.0566L97.8667 16.0238ZM82.1443 14.4495C82.1443 15.5412 82.7703 16.1397 83.6976 16.1397C84.1423 16.1397 84.5891 16.0407 84.9685 15.8552C85.1371 15.773 85.3373 15.8468 85.4005 16.0238L86.4712 19.0545C86.5239 19.2041 86.4585 19.3664 86.3194 19.4423C85.4321 19.9186 84.2076 20.1462 82.9621 20.1462C79.1748 20.1462 76.9661 18.2937 76.9661 14.5043V9.70325C76.9661 9.61473 76.8944 9.54307 76.8059 9.54307H75.1283C74.9533 9.54307 74.8121 9.40187 74.8121 9.22694V5.98762C74.8121 5.81269 74.9533 5.67148 75.1283 5.67148H76.8059C76.8944 5.67148 76.9661 5.59982 76.9661 5.51131V2.14342C76.9661 1.9685 77.1073 1.82729 77.2822 1.82729H81.8282C82.0031 1.82729 82.1443 1.9685 82.1443 2.14342V5.51131C82.1443 5.59982 82.216 5.67148 82.3045 5.67148H86.8948L82.6101 9.54307H82.3045C82.216 9.54307 82.1443 9.61473 82.1443 9.70325V14.4495Z" fill="white"></path>
</svg>
